<svg width="23" height="21" viewBox="0 0 23 21" fill="none" xmlns="http://www.w3.org/2000/svg">
<path d="M21.6276 9.08586L15.3032 2.71836C13.6141 1.03267 11.3253 0.0859375 8.93896 0.0859375C6.55265 0.0859375 4.26381 1.03267 2.57474 2.71836L2.56631 2.72679L1.27537 4.06086C1.14164 4.20457 1.06959 4.39499 1.07468 4.59123C1.07977 4.78747 1.1616 4.97389 1.30261 5.11047C1.44361 5.24706 1.63254 5.32291 1.82884 5.32176C2.02515 5.3206 2.21317 5.24253 2.35256 5.10429L3.63974 3.77492C4.15761 3.25716 4.74858 2.81812 5.39381 2.4718L9.75318 6.83586L0.753182 15.8359C0.613858 15.9752 0.503338 16.1405 0.427934 16.3225C0.352531 16.5045 0.313721 16.6996 0.313721 16.8966C0.313721 17.0937 0.352531 17.2887 0.427934 17.4707C0.503338 17.6528 0.613858 17.8181 0.753182 17.9574L2.69287 19.8971C2.83216 20.0364 2.99754 20.147 3.17955 20.2224C3.36156 20.2978 3.55664 20.3366 3.75365 20.3366C3.95066 20.3366 4.14574 20.2978 4.32775 20.2224C4.50977 20.147 4.67514 20.0364 4.81443 19.8971L13.8144 10.8971L16.8144 13.8971C16.9537 14.0364 17.1191 14.147 17.3011 14.2224C17.4831 14.2978 17.6782 14.3366 17.8752 14.3366C18.0722 14.3366 18.2673 14.2978 18.4493 14.2224C18.6313 14.147 18.7967 14.0364 18.936 13.8971L21.6257 11.2074C21.7651 11.0683 21.8758 10.903 21.9514 10.721C22.0269 10.5391 22.0659 10.344 22.0661 10.147C22.0663 9.95002 22.0276 9.7549 21.9524 9.57282C21.8771 9.39075 21.7668 9.22527 21.6276 9.08586ZM13.2838 9.30429L11.1894 11.3987L9.24974 9.46086L11.3451 7.36555C11.4148 7.29589 11.4701 7.21317 11.5079 7.12212C11.5456 7.03108 11.565 6.93348 11.565 6.83492C11.565 6.73636 11.5456 6.63876 11.5079 6.54771C11.4701 6.45667 11.4148 6.37395 11.3451 6.3043L6.90693 1.86711C8.18918 1.50598 9.54448 1.49289 10.8335 1.82918C12.1224 2.16547 13.2986 2.83901 14.241 3.78054L18.3866 7.95336L15.6894 10.6477L14.3451 9.30336C14.2754 9.23363 14.1927 9.17831 14.1016 9.14056C14.0106 9.10282 13.913 9.08339 13.8144 9.08339C13.7159 9.08339 13.6183 9.10282 13.5272 9.14056C13.4362 9.17831 13.3535 9.23363 13.2838 9.30336V9.30429ZM17.8776 12.8349L16.7526 11.7099L19.4394 9.01554L20.5644 10.1405L17.8776 12.8349Z" fill="#FFA10C"/>
</svg>
