<svg width="20" height="27" viewBox="0 0 20 27" fill="none" xmlns="http://www.w3.org/2000/svg">
<path d="M0.927734 11.6472C0.927734 11.6472 6.3673 6.83385 6.86351 6.21671C7.35972 5.59958 7.33417 4.75534 6.80673 4.3318C6.27929 3.90826 5.44982 4.06496 4.95362 4.6821C4.45741 5.29924 0.927734 11.6472 0.927734 11.6472Z" fill="#FFB134"/>
<path d="M10.3588 1.78922C9.75357 1.779 9.25452 2.26158 9.2443 2.86736C9.23408 3.47258 9.71722 3.97163 10.3224 3.98185C10.9277 3.99207 11.4267 3.50948 11.4369 2.90369C11.4471 2.29848 10.9646 1.79944 10.3588 1.78922Z" fill="#FFB134"/>
<path d="M18.726 20.422C18.1208 20.4124 17.6217 20.8949 17.6115 21.5002C17.6013 22.1054 18.0844 22.6044 18.6896 22.6146C19.2949 22.6249 19.7939 22.1423 19.8041 21.5365C19.8143 20.9313 19.3318 20.4322 18.726 20.422Z" fill="#FFB134"/>
<path d="M15.5591 10.9524C15.022 11.2317 14.8131 11.8943 15.093 12.4314C15.3723 12.9684 16.0343 13.1774 16.5714 12.8975C17.1085 12.6181 17.3174 11.9556 17.0375 11.4191C16.7576 10.8814 16.0957 10.6725 15.5591 10.9524Z" fill="#006AAC"/>
<path d="M0.590383 15.2881C0.0532963 15.5674 -0.155633 16.2294 0.124265 16.7665C0.403595 17.3036 1.06616 17.5125 1.60267 17.2326C2.13976 16.9533 2.34869 16.2907 2.06879 15.7542C1.78946 15.2171 1.12747 15.0087 0.590383 15.2881Z" fill="#FFB134"/>
<path d="M19.1406 15.465C18.8527 15.6149 18.7409 15.9697 18.8908 16.2576C19.0406 16.5454 19.3955 16.6572 19.6828 16.5074C19.9706 16.3575 20.0825 16.0026 19.9326 15.7148C19.7833 15.4269 19.4284 15.3151 19.1406 15.465Z" fill="#FFB134"/>
<path d="M6.19135 0.0665318C5.90351 0.216416 5.79166 0.571255 5.94154 0.859101C6.09143 1.14695 6.44627 1.2588 6.73355 1.10891C7.0214 0.959026 7.13324 0.604174 6.98336 0.316895C6.83348 0.0284809 6.4792 -0.0833529 6.19135 0.0665318Z" fill="#FFB134"/>
<path d="M8.46741 24.5003C7.8622 24.5145 7.38302 25.0164 7.39665 25.6216C7.41084 26.2268 7.91273 26.7066 8.51795 26.6924C9.12316 26.6782 9.6029 26.1763 9.5887 25.5711C9.57451 24.9659 9.07263 24.4861 8.46741 24.5003Z" fill="#006AAC"/>
<path d="M15.4525 25.3127C15.1283 25.32 14.8711 25.5891 14.8791 25.9133C14.8865 26.2375 15.1556 26.4947 15.4798 26.4867C15.8039 26.4794 16.0611 26.2102 16.0537 25.8861C16.0458 25.5619 15.7767 25.3053 15.4525 25.3127Z" fill="#006AAC"/>
<path d="M13.2341 6.42195C12.9099 6.41684 12.6425 6.67516 12.6368 6.99935C12.6317 7.32353 12.89 7.59094 13.2142 7.59661C13.5384 7.60229 13.8058 7.3434 13.8115 7.01922C13.8166 6.69447 13.5582 6.42763 13.2341 6.42195Z" fill="#006AAC"/>
<path d="M1.5 18.684C1.5 18.684 1.66749 18.6788 1.96215 18.6703C2.25113 18.6363 2.67013 18.7072 3.15612 18.7719C4.13434 18.9656 5.37316 19.4748 6.53533 20.1765C7.70205 20.8715 8.79722 21.7356 9.60513 22.4827C10.6895 23.4876 11.896 25.2397 13.2909 24.8008C14.2447 24.5005 13.7758 22.9137 12.99 22.1535C12.759 21.9093 11.9885 21.3018 10.9217 20.6739C9.85493 20.046 8.47702 19.4021 7.07242 18.965C5.67179 18.5187 4.23994 18.3075 3.1862 18.3592C2.65706 18.4165 2.23239 18.4518 1.94568 18.5585C1.66181 18.638 1.5 18.684 1.5 18.684Z" fill="#006AAC"/>
<path d="M5.28137 15.6571C5.28137 15.6571 5.87636 15.6451 6.76715 15.7365C7.65681 15.8251 8.84113 16.0244 9.98514 16.3798C13.173 17.3433 14.2086 18.8813 15.0193 19.1589C16.3393 19.7653 17.5537 18.7955 16.6243 17.3166C15.4968 15.8115 12.0875 15.1217 10.1963 15.0711C8.89223 15.0263 7.65227 15.1631 6.75069 15.3227C5.84855 15.4811 5.28137 15.6571 5.28137 15.6571Z" fill="#FFB134"/>
<path d="M1.91406 13.8534C1.91406 13.8534 2.45909 13.5383 3.32888 13.1573C4.19639 12.7747 5.3915 12.333 6.63316 12.0406C9.26181 11.4013 10.8742 11.6704 12.092 11.8146C14.9881 12.1661 15.4849 8.34003 9.9045 9.40739C8.73494 9.65663 7.3718 10.1557 6.16136 10.8012C4.94469 11.4399 3.86994 12.1984 3.11427 12.8031C2.35633 13.4066 1.91406 13.8534 1.91406 13.8534Z" fill="#006AAC"/>
</svg>
