<svg width="19" height="18" viewBox="0 0 19 18" fill="none" xmlns="http://www.w3.org/2000/svg">
<mask id="mask0_538_316" style="mask-type:luminance" maskUnits="userSpaceOnUse" x="0" y="0" width="19" height="18">
<path d="M0.568604 0H18.5686V18H0.568604V0Z" fill="white"/>
</mask>
<g mask="url(#mask0_538_316)">
<path fill-rule="evenodd" clip-rule="evenodd" d="M9.5686 0C4.59804 0 0.568604 4.02944 0.568604 9C0.568604 13.9706 4.59804 18 9.5686 18C14.5392 18 18.5686 13.9706 18.5686 9C18.5686 4.02944 14.5392 0 9.5686 0Z" fill="#2E42A5"/>
<mask id="mask1_538_316" style="mask-type:luminance" maskUnits="userSpaceOnUse" x="0" y="0" width="19" height="18">
<path fill-rule="evenodd" clip-rule="evenodd" d="M9.5686 0C4.59804 0 0.568604 4.02944 0.568604 9C0.568604 13.9706 4.59804 18 9.5686 18C14.5392 18 18.5686 13.9706 18.5686 9C18.5686 4.02944 14.5392 0 9.5686 0Z" fill="white"/>
</mask>
<g mask="url(#mask1_538_316)">
<mask id="mask2_538_316" style="mask-type:luminance" maskUnits="userSpaceOnUse" x="0" y="0" width="19" height="18">
<path d="M0.568604 9C0.568604 4.02944 4.59804 0 9.5686 0C14.5392 0 18.5686 4.02944 18.5686 9C18.5686 13.9706 14.5392 18 9.5686 18C4.59804 18 0.568604 13.9706 0.568604 9Z" fill="white"/>
</mask>
<g mask="url(#mask2_538_316)">
<path d="M0.51243 14.6452C-0.478044 15.6953 -0.219943 17.3963 1.03745 18.1053C1.91466 18.5999 3.01486 18.4428 3.71849 17.7223L18.4757 2.61205C18.5971 2.4877 18.705 2.35083 18.7976 2.20374L19.0713 1.769C19.8716 0.497578 19.1282 -1.17954 17.6486 -1.4403C16.9402 -1.56516 16.2169 -1.32136 15.7286 -0.793127L9.93168 5.47798L4.63515 10.2743L0.51243 14.6452Z" fill="white"/>
<path d="M0.0609042 17.2454C-0.436665 17.7821 -0.328116 18.6381 0.287667 19.0337C0.770648 19.3439 1.40705 19.2599 1.79305 18.835L18.4006 0.554462C19.014 -0.120702 18.535 -1.20312 17.6228 -1.20312C17.3303 -1.20312 17.051 -1.0812 16.8521 -0.866684L0.0609042 17.2454Z" fill="#F50100"/>
<path d="M18.6244 14.6452C19.6149 15.6953 19.3568 17.3963 18.0994 18.1053C17.2222 18.5999 16.122 18.4428 15.4183 17.7223L0.661147 2.61205C0.539706 2.4877 0.431785 2.35084 0.339193 2.20374L0.0655444 1.76902C-0.734793 0.497595 0.00867164 -1.17954 1.48822 -1.4403C2.19665 -1.56516 2.91996 -1.32135 3.40825 -0.793121L9.20516 5.47798L14.5017 10.2743L18.6244 14.6452Z" fill="white"/>
<path d="M19.4923 16.8025C19.9861 17.3412 19.8754 18.1948 19.2605 18.5898C18.7755 18.9013 18.1362 18.8161 17.7497 18.3883L11.2856 11.2339C10.6915 10.5764 9.95919 10.0585 9.14129 9.7173L9.04356 9.67654C8.35553 9.38956 7.73315 8.96549 7.21433 8.43018L-0.135461 0.846776C-0.76245 0.199857 -0.304039 -0.882812 0.59686 -0.882812C0.868719 -0.882812 1.12933 -0.774268 1.3208 -0.581283L9.87357 8.0387C10.5051 8.67517 11.2463 9.19235 12.0617 9.56534C12.9671 9.97953 13.7802 10.5711 14.453 11.305L19.4923 16.8025Z" fill="#F50100"/>
<path fill-rule="evenodd" clip-rule="evenodd" d="M11.6937 0.624984C11.6937 -0.548613 10.7423 -1.5 9.56875 -1.5C8.39515 -1.5 7.44376 -0.548612 7.44376 0.624985V2.25C7.44376 4.32107 5.76483 6 3.69376 6H2.45923C0.802377 6 -0.540771 7.34315 -0.540771 9C-0.540771 10.6569 0.802374 12 2.45923 12H3.69376C5.76483 12 7.44376 13.6789 7.44376 15.75V17.375C7.44376 18.5486 8.39515 19.5 9.56875 19.5C10.7423 19.5 11.6937 18.5486 11.6937 17.375V15.75C11.6937 13.6789 13.3727 12 15.4437 12H16.7092C18.3661 12 19.7092 10.6569 19.7092 9C19.7092 7.34315 18.3661 6 16.7092 6H15.4437C13.3727 6 11.6937 4.32107 11.6937 2.25V0.624984Z" fill="#F50100"/>
<mask id="mask3_538_316" style="mask-type:luminance" maskUnits="userSpaceOnUse" x="-1" y="-2" width="21" height="22">
<path fill-rule="evenodd" clip-rule="evenodd" d="M11.6937 0.624984C11.6937 -0.548613 10.7423 -1.5 9.56875 -1.5C8.39515 -1.5 7.44376 -0.548612 7.44376 0.624985V2.25C7.44376 4.32107 5.76483 6 3.69376 6H2.45923C0.802377 6 -0.540771 7.34315 -0.540771 9C-0.540771 10.6569 0.802374 12 2.45923 12H3.69376C5.76483 12 7.44376 13.6789 7.44376 15.75V17.375C7.44376 18.5486 8.39515 19.5 9.56875 19.5C10.7423 19.5 11.6937 18.5486 11.6937 17.375V15.75C11.6937 13.6789 13.3727 12 15.4437 12H16.7092C18.3661 12 19.7092 10.6569 19.7092 9C19.7092 7.34315 18.3661 6 16.7092 6H15.4437C13.3727 6 11.6937 4.32107 11.6937 2.25V0.624984Z" fill="white"/>
</mask>
<g mask="url(#mask3_538_316)">
<path d="M6.31877 -1.5C6.94009 -1.5 7.44377 -2.00368 7.44377 -2.625V-3C6.82245 -3 6.31877 -2.49632 6.31877 -1.875V-1.5ZM11.6937 -2.625C11.6937 -2.00368 12.1974 -1.5 12.8187 -1.5V-1.875C12.8187 -2.49632 12.3151 -3 11.6937 -3V-2.625ZM8.56877 6C7.94745 6 7.44377 6.50368 7.44377 7.125V7.5C8.06509 7.5 8.56877 6.99632 8.56877 6.375V6ZM-1.66577 6C-1.04445 6 -0.540771 5.49632 -0.540771 4.875V4.5C-1.16209 4.5 -1.66577 5.00368 -1.66577 5.625V6ZM-0.540771 13.125C-0.540771 12.5037 -1.04445 12 -1.66577 12V12.375C-1.66577 12.9963 -1.16209 13.5 -0.540771 13.5V13.125ZM7.44377 10.875C7.44377 11.4963 7.94745 12 8.56877 12V11.625C8.56877 11.0037 8.06509 10.5 7.44377 10.5V10.875ZM7.44377 20.625C7.44377 20.0037 6.94009 19.5 6.31877 19.5V19.875C6.31877 20.4963 6.82245 21 7.44377 21V20.625ZM12.8187 19.5C12.1974 19.5 11.6937 20.0037 11.6937 20.625V21C12.3151 21 12.8187 20.4963 12.8187 19.875V19.5ZM10.5687 12C11.1901 12 11.6937 11.4963 11.6937 10.875V10.5C11.0724 10.5 10.5687 11.0037 10.5687 11.625V12ZM20.8343 12C20.2129 12 19.7092 12.5037 19.7092 13.125V13.5C20.3306 13.5 20.8343 12.9963 20.8343 12.375V12ZM19.7092 4.875C19.7092 5.49632 20.2129 6 20.8343 6V5.625C20.8343 5.00368 20.3306 4.5 19.7092 4.5V4.875ZM11.6937 7.125C11.6937 6.50368 11.1901 6 10.5687 6V6.375C10.5687 6.99632 11.0724 7.5 11.6937 7.5V7.125ZM7.44377 -2.12498C7.44377 -0.951388 8.39515 0 9.56875 0C10.7423 0 11.6937 -0.951388 11.6937 -2.12498V-3H7.44377V-2.12498ZM8.56877 6V0.75C8.56877 -0.492641 7.56141 -1.5 6.31877 -1.5V3.75C6.31877 4.99264 7.32613 6 8.56877 6ZM-0.540771 4.5C-0.540771 6.15685 0.802375 7.5 2.45923 7.5H7.44377C7.44377 5.84315 6.10062 4.5 4.44377 4.5H-0.540771ZM-1.66577 12C-0.423132 12 0.584227 10.9926 0.584227 9.75V8.25C0.584227 7.00736 -0.423132 6 -1.66577 6V12ZM7.44377 10.5H2.45923C0.802373 10.5 -0.540771 11.8431 -0.540771 13.5H4.44377C6.10062 13.5 7.44377 12.1569 7.44377 10.5ZM6.31877 19.5C7.56141 19.5 8.56877 18.4926 8.56877 17.25V12C7.32613 12 6.31877 13.0074 6.31877 14.25V19.5ZM11.6937 20.125C11.6937 18.9514 10.7423 18 9.56875 18C8.39515 18 7.44377 18.9514 7.44377 20.125V21H11.6937V20.125ZM10.5687 12V17.25C10.5687 18.4926 11.5761 19.5 12.8187 19.5V14.25C12.8187 13.0074 11.8114 12 10.5687 12ZM19.7092 13.5C19.7092 11.8431 18.3661 10.5 16.7092 10.5H11.6937C11.6937 12.1569 13.0369 13.5 14.6937 13.5H19.7092ZM20.8343 6C19.5916 6 18.5842 7.00736 18.5842 8.25V9.75C18.5842 10.9926 19.5916 12 20.8343 12V6ZM11.6937 7.5H16.7093C18.3661 7.5 19.7092 6.15685 19.7092 4.5H14.6937C13.0369 4.5 11.6937 5.84315 11.6937 7.5ZM12.8187 -1.5C11.5761 -1.5 10.5687 -0.49264 10.5687 0.75V6C11.8114 6 12.8187 4.99264 12.8187 3.75V-1.5Z" fill="white"/>
</g>
</g>
</g>
</g>
</svg>
