<svg width="21" height="21" viewBox="0 0 21 21" fill="none" xmlns="http://www.w3.org/2000/svg">
<path d="M19.5664 8.60156C19.5664 14.0703 11.4578 18.4969 11.1125 18.6797C11.0215 18.7286 10.9198 18.7543 10.8164 18.7543C10.7131 18.7543 10.6113 18.7286 10.5203 18.6797C10.175 18.4969 2.06641 14.0703 2.06641 8.60156C2.06785 7.31736 2.57864 6.08618 3.48671 5.17811C4.39477 4.27005 5.62596 3.75926 6.91016 3.75781C8.52344 3.75781 9.93594 4.45156 10.8164 5.62422C11.6969 4.45156 13.1094 3.75781 14.7227 3.75781C16.0069 3.75926 17.238 4.27005 18.1461 5.17811C19.0542 6.08618 19.565 7.31736 19.5664 8.60156Z" fill="#FFD085"/>
</svg>
