<svg width="21" height="21" viewBox="0 0 21 21" fill="none" xmlns="http://www.w3.org/2000/svg">
<g clip-path="url(#clip0_290_2432)">
<path d="M19.3069 8.17496C19.8308 9.05678 20.1747 10.0337 20.3187 11.0493C20.4626 12.0649 20.4037 13.0989 20.1455 14.0916C19.8872 15.0842 19.4347 16.0158 18.8141 16.8325C18.1935 17.6492 17.4171 18.3347 16.5299 18.8494C15.6427 19.3641 14.6622 19.6977 13.6452 19.8311C12.6281 19.9644 11.5948 19.8947 10.6049 19.6261C9.61494 19.3576 8.6881 18.8953 7.87796 18.2663C7.06781 17.6372 6.39044 16.8537 5.88503 15.9611L2.27629 9.71085C2.10463 9.38811 2.06496 9.01133 2.16564 8.6599C2.26632 8.30848 2.49948 8.00986 2.816 7.82697C3.13252 7.64408 3.50767 7.5912 3.86241 7.67946C4.21716 7.76773 4.52378 7.99026 4.71768 8.30016L6.35409 11.1321C6.4004 11.2124 6.46207 11.2827 6.53556 11.3391C6.60906 11.3955 6.69294 11.4369 6.78243 11.4609C6.87191 11.4849 6.96525 11.491 7.0571 11.4789C7.14896 11.4668 7.23753 11.4368 7.31777 11.3905C7.39801 11.3442 7.46834 11.2825 7.52475 11.209C7.58115 11.1355 7.62253 11.0516 7.64652 10.9621C7.67051 10.8726 7.67664 10.7793 7.66456 10.6875C7.65247 10.5956 7.62242 10.507 7.5761 10.4268L4.11461 4.43132C3.94295 4.10857 3.90328 3.73179 4.00396 3.38037C4.10463 3.02895 4.33779 2.73033 4.65431 2.54744C4.97083 2.36455 5.34599 2.31166 5.70073 2.39993C6.05547 2.4882 6.36209 2.71073 6.55599 3.02063L10.0219 9.01609C10.0668 9.09886 10.1279 9.17179 10.2015 9.23058C10.2751 9.28937 10.3597 9.33283 10.4504 9.35839C10.541 9.38394 10.6359 9.39108 10.7294 9.37938C10.8228 9.36768 10.913 9.33739 10.9946 9.29027C11.0761 9.24316 11.1474 9.18019 11.2042 9.10508C11.2611 9.02996 11.3023 8.94423 11.3254 8.85293C11.3486 8.76163 11.3532 8.66662 11.3391 8.5735C11.3249 8.48037 11.2923 8.39103 11.243 8.31074L8.59798 3.72597C8.41638 3.40231 8.36964 3.02013 8.46789 2.66225C8.56614 2.30436 8.80146 1.99961 9.12285 1.81403C9.44425 1.62846 9.82583 1.577 10.1849 1.67083C10.544 1.76465 10.8516 1.9962 11.0411 2.31528L14.6067 8.49766C13.8182 9.29221 13.3747 10.3655 13.3723 11.4848C13.3697 12.4009 13.6669 13.2927 14.2187 14.0241C14.2737 14.0997 14.3433 14.1637 14.4232 14.2123C14.5032 14.2608 14.5921 14.293 14.6846 14.3069C14.7771 14.3207 14.8715 14.3161 14.9622 14.2931C15.0529 14.2702 15.1381 14.2294 15.213 14.1732C15.2878 14.117 15.3506 14.0465 15.3979 13.9658C15.4452 13.885 15.4759 13.7957 15.4884 13.7029C15.5008 13.6102 15.4946 13.5159 15.4702 13.4256C15.4459 13.3352 15.4038 13.2507 15.3464 13.1768C15.1233 12.8789 14.9613 12.5398 14.8698 12.179C14.7783 11.8183 14.7591 11.443 14.8133 11.0748C14.8674 10.7065 14.9939 10.3527 15.1855 10.0336C15.377 9.71443 15.6297 9.43636 15.9292 9.21535C16.0684 9.11231 16.1649 8.96162 16.2002 8.79203C16.2355 8.62243 16.2071 8.44578 16.1205 8.29575L15.1101 6.54737C14.9285 6.22371 14.8818 5.84152 14.98 5.48364C15.0783 5.12575 15.3136 4.821 15.635 4.63543C15.9564 4.44985 16.338 4.3984 16.697 4.49222C17.0561 4.58605 17.3637 4.81759 17.5533 5.13667L19.3069 8.17496ZM16.7174 3.14935C17.2116 3.27958 17.675 3.50675 18.0807 3.81764C18.4863 4.12854 18.8261 4.51696 19.0803 4.96033L19.1094 5.01059C19.203 5.17264 19.357 5.2909 19.5378 5.33934C19.6273 5.36333 19.7206 5.36946 19.8124 5.35738C19.9043 5.34529 19.9929 5.31524 20.0731 5.26892C20.1534 5.22261 20.2237 5.16095 20.2801 5.08745C20.3365 5.01396 20.3779 4.93007 20.4019 4.84059C20.4259 4.7511 20.432 4.65776 20.4199 4.56591C20.4078 4.47406 20.3778 4.38548 20.3314 4.30524L20.3024 4.25499C19.9557 3.65056 19.4924 3.12107 18.9393 2.69726C18.3862 2.27345 17.7545 1.96379 17.0807 1.78627C16.9004 1.73966 16.7091 1.7662 16.5483 1.86009C16.3876 1.95399 16.2705 2.10763 16.2225 2.28752C16.1746 2.46741 16.1997 2.65895 16.2924 2.8204C16.3851 2.98184 16.5379 3.10008 16.7174 3.14935ZM6.98714 19.3953C6.07315 18.674 5.30553 17.7846 4.72562 16.7749C4.6793 16.6947 4.61764 16.6243 4.54414 16.5679C4.47065 16.5115 4.38676 16.4702 4.29728 16.4462C4.20779 16.4222 4.11446 16.416 4.0226 16.4281C3.93075 16.4402 3.84217 16.4703 3.76193 16.5166C3.68169 16.5629 3.61136 16.6246 3.55496 16.6981C3.49855 16.7716 3.45717 16.8554 3.43318 16.9449C3.40919 17.0344 3.40306 17.1277 3.41515 17.2196C3.42723 17.3115 3.45729 17.4 3.5036 17.4803C4.17302 18.6448 5.05884 19.6707 6.11339 20.5027C6.26047 20.6158 6.44622 20.6665 6.63038 20.6436C6.81455 20.6208 6.98228 20.5262 7.09723 20.3805C7.21218 20.2349 7.26508 20.0497 7.24448 19.8653C7.22387 19.6809 7.13141 19.512 6.98714 19.3953Z" fill="#0080D0"/>
</g>
<defs>
<clipPath id="clip0_290_2432">
<rect width="20" height="20" fill="white" transform="translate(0.816406 0.898438)"/>
</clipPath>
</defs>
</svg>
